<?xml version="1.0" standalone="no"?>
<!DOCTYPE svg PUBLIC "-//W3C//DTD SVG 20010904//EN"
 "http://www.w3.org/TR/2001/REC-SVG-20010904/DTD/svg10.dtd">
<svg version="1.0" xmlns="http://www.w3.org/2000/svg"
 width="982.000000pt" height="982.000000pt" viewBox="0 0 982.000000 982.000000"
 preserveAspectRatio="xMidYMid meet">
<metadata>
Created by potrace 1.11, written by Peter Selinger 2001-2013
</metadata>
<g transform="translate(0.000000,982.000000) scale(0.100000,-0.100000)"
fill="#000000" stroke="none">
<path d="M2480 9810 c-1795 -5 -1939 -7 -1993 -23 -219 -65 -387 -242 -454
-477 -17 -63 -18 -220 -18 -4430 l0 -4365 51 -105 c38 -78 69 -124 118 -177
88 -95 146 -136 269 -191 l102 -45 4215 7 c2318 4 4299 11 4401 16 l187 8 73
37 c99 49 157 93 228 172 117 130 126 165 141 553 6 144 10 1948 10 4388 l0
4144 -57 111 c-46 91 -72 126 -133 188 -95 97 -208 156 -321 170 -156 19
-3468 28 -6819 19z m2565 -884 c60 -28 142 -113 174 -179 21 -44 24 -69 32
-265 4 -119 8 -407 9 -639 l0 -423 269 0 c677 0 1549 93 2141 229 149 35 374
107 390 126 58 70 -649 209 -1555 305 -495 53 -539 64 -584 153 -60 118 -23
238 93 300 36 19 55 22 146 20 170 -2 838 -70 1180 -119 739 -107 1146 -282
1241 -534 17 -44 20 -71 17 -135 -7 -117 -50 -191 -169 -287 -119 -95 -404
-210 -666 -268 -57 -13 -103 -26 -103 -30 0 -3 46 -28 102 -55 210 -102 344
-212 396 -322 22 -48 27 -72 27 -139 0 -73 -4 -88 -38 -156 -26 -54 -54 -92
-95 -129 -104 -96 -329 -207 -547 -269 -60 -18 -114 -36 -119 -40 -9 -9 25
-32 171 -115 163 -92 271 -224 293 -357 27 -169 -54 -323 -234 -443 -100 -66
-181 -104 -341 -161 -70 -24 -120 -47 -120 -55 0 -12 22 -31 162 -140 73 -57
144 -150 174 -227 30 -77 30 -196 2 -269 -65 -165 -210 -286 -473 -394 -352
-146 -765 -222 -1548 -285 l-212 -18 2 -194 3 -195 100 -46 100 -46 210 0 210
1 120 43 c538 192 736 243 889 226 246 -26 410 -113 631 -331 214 -211 267
-298 273 -453 5 -104 -7 -174 -45 -266 -70 -168 -223 -363 -430 -546 -358
-318 -692 -517 -963 -574 -93 -20 -246 -19 -323 1 -215 55 -389 237 -491 514
-19 51 -39 97 -45 103 -19 19 -58 -4 -148 -90 l-92 -88 -9 -225 c-12 -266 -20
-297 -96 -374 -77 -78 -131 -101 -241 -101 -78 0 -96 4 -140 27 -64 34 -128
100 -154 158 -31 70 -41 159 -41 356 l0 181 -106 91 c-58 51 -109 92 -114 92
-4 0 -15 -28 -25 -62 -84 -302 -278 -524 -510 -583 -117 -30 -292 -16 -447 35
-171 57 -437 216 -663 396 -172 138 -428 399 -507 519 -168 254 -193 466 -76
650 113 179 352 402 514 480 281 135 460 125 974 -55 278 -98 345 -117 447
-131 156 -21 291 0 433 67 l80 37 0 192 0 192 -162 12 c-539 40 -854 84 -1184
165 -454 112 -722 263 -822 464 -36 73 -37 80 -37 181 0 99 2 111 33 175 42
88 146 193 266 267 49 30 88 59 88 64 0 5 -62 30 -136 55 -390 135 -586 302
-603 513 -9 112 28 206 122 306 64 68 131 114 274 185 62 32 110 61 105 65 -5
4 -88 33 -186 65 -201 65 -385 152 -473 223 -115 93 -184 230 -170 339 10 82
65 183 135 248 80 73 225 159 341 201 54 19 88 36 79 39 -8 3 -82 23 -165 45
-262 70 -411 125 -549 205 -89 51 -184 140 -222 208 -26 48 -29 62 -29 143 0
82 3 97 33 157 106 215 448 362 1092 467 401 66 984 132 1195 134 137 2 176
-8 223 -56 123 -127 55 -329 -123 -365 -32 -7 -201 -28 -374 -47 -500 -56
-869 -112 -1186 -180 -358 -77 -388 -102 -200 -166 468 -159 1581 -299 2378
-299 l257 0 0 544 c0 717 8 786 98 879 36 37 109 82 162 98 55 16 153 10 205
-15z"/>
<path d="M3370 6945 c-546 -80 -879 -156 -1077 -246 -77 -34 -80 -52 -15 -80
75 -33 298 -105 413 -133 333 -81 891 -151 1441 -181 297 -16 401 -23 431 -31
16 -5 17 16 17 334 l0 340 -33 6 c-60 11 -470 26 -712 25 -218 -1 -261 -4
-465 -34z"/>
<path d="M5470 6968 c-107 -5 -197 -12 -200 -15 -9 -8 -12 -685 -3 -680 8 5
126 12 578 37 526 29 1137 118 1483 216 211 59 343 118 326 145 -17 28 -242
110 -429 158 -175 44 -527 104 -770 132 -135 15 -743 19 -985 7z"/>
<path d="M5850 5864 c-30 -2 -140 -8 -245 -14 -104 -6 -225 -13 -267 -16 l-78
-7 0 -335 0 -335 183 7 c100 4 216 12 257 17 125 15 267 28 420 39 175 12 299
30 530 76 218 43 444 102 573 148 159 56 183 81 127 128 -151 125 -1125 315
-1500 292z"/>
<path d="M3810 5853 c-398 -37 -772 -110 -1055 -204 -151 -50 -245 -94 -252
-116 -6 -17 96 -66 247 -118 359 -122 765 -187 1520 -240 118 -8 236 -17 263
-20 l47 -6 0 339 0 339 -67 7 c-243 23 -571 32 -703 19z"/>
<path d="M3770 4730 c-248 -26 -752 -161 -905 -243 -49 -26 -60 -37 -60 -57 0
-60 329 -178 705 -254 244 -48 478 -78 805 -101 121 -9 230 -18 242 -21 l23
-6 0 329 0 330 -147 12 c-192 16 -554 22 -663 11z"/>
<path d="M5525 4724 c-99 -7 -199 -13 -222 -13 l-43 -1 0 -331 0 -332 38 7
c21 3 130 12 243 21 667 49 1184 154 1469 298 86 44 95 60 50 98 -93 78 -527
203 -881 254 -126 18 -399 18 -654 -1z"/>
<path d="M2868 2785 c-153 -38 -253 -135 -277 -268 -26 -142 47 -275 186 -343
129 -63 337 -29 438 71 100 101 111 267 25 397 -76 115 -237 177 -372 143z"/>
<path d="M6840 2782 c-182 -61 -250 -138 -258 -293 -6 -110 13 -170 73 -237
52 -58 113 -87 216 -103 139 -21 233 6 320 95 87 87 119 202 86 300 -24 71
-84 153 -132 182 -110 64 -220 84 -305 56z"/>
</g>
</svg>
